<svg xmlns="http://www.w3.org/2000/svg" xmlns:xlink="http://www.w3.org/1999/xlink" width="100%" height="100%" data-id="root">
<path fill-rule="evenodd" fill="rgb(140, 140, 140)" d="M13.500,27.000 C6.044,27.000 -0.000,20.956 -0.000,13.500 C-0.000,6.044 6.044,-0.000 13.500,-0.000 C20.956,-0.000 27.000,6.044 27.000,13.500 C27.000,20.956 20.956,27.000 13.500,27.000 ZM22.102,22.554 C20.601,19.286 17.332,17.000 13.500,17.000 C9.670,17.000 6.385,19.274 4.881,22.539 C7.125,24.678 10.155,26.000 13.500,26.000 C16.837,26.000 19.861,24.684 22.102,22.554 ZM13.500,1.000 C6.596,1.000 1.000,6.596 1.000,13.500 C1.000,16.679 2.196,19.571 4.151,21.777 C5.881,18.358 9.405,16.000 13.500,16.000 C17.595,16.000 21.116,18.360 22.847,21.780 C24.803,19.573 26.000,16.680 26.000,13.500 C26.000,6.596 20.404,1.000 13.500,1.000 ZM13.500,15.000 C10.462,15.000 8.000,12.537 8.000,9.500 C8.000,6.462 10.462,4.000 13.500,4.000 C16.537,4.000 19.000,6.462 19.000,9.500 C19.000,12.537 16.537,15.000 13.500,15.000 ZM13.500,5.000 C11.015,5.000 9.000,7.014 9.000,9.500 C9.000,11.985 11.015,14.000 13.500,14.000 C15.985,14.000 18.000,11.985 18.000,9.500 C18.000,7.014 15.985,5.000 13.500,5.000 Z" data-id="path-1758294716250-1"/>
</svg>