<svg xmlns="http://www.w3.org/2000/svg" xmlns:xlink="http://www.w3.org/1999/xlink" width="100%" height="100%" data-id="root">
<path fill-rule="evenodd" fill="rgb(129, 129, 129)" d="M14.000,22.000 C11.184,22.000 8.623,20.932 6.677,19.192 L1.213,24.657 L0.506,23.949 L5.962,18.493 C4.130,16.528 3.000,13.899 3.000,11.000 C3.000,4.925 7.925,-0.000 14.000,-0.000 C20.075,-0.000 25.000,4.925 25.000,11.000 C25.000,17.075 20.075,22.000 14.000,22.000 ZM14.000,0.999 C8.477,0.999 4.000,5.477 4.000,11.000 C4.000,16.522 8.477,20.999 14.000,20.999 C19.523,20.999 24.000,16.522 24.000,11.000 C24.000,5.477 19.523,0.999 14.000,0.999 Z" data-id="path-1758294592700-0"/>
</svg>