<svg xmlns="http://www.w3.org/2000/svg" xmlns:xlink="http://www.w3.org/1999/xlink" width="100%" height="100%" data-id="root">
<path fill-rule="evenodd" fill="rgb(200, 168, 123)" d="M17.000,77.000 L17.000,1.000 L95.000,1.000 L95.000,77.000 L17.000,77.000 ZM93.000,3.000 L19.000,3.000 L19.000,74.999 L93.000,74.999 L93.000,3.000 ZM55.000,73.000 L21.000,73.000 L21.000,5.000 L55.000,5.000 L55.000,73.000 ZM53.000,6.999 L23.000,6.999 L23.000,71.000 L53.000,71.000 L53.000,6.999 ZM41.232,11.182 L27.182,25.232 L25.768,23.818 L39.818,9.767 L41.232,11.182 ZM29.268,27.318 L36.982,19.603 L38.396,21.017 L30.682,28.732 L29.268,27.318 ZM33.448,53.681 C34.286,53.168 35.271,52.343 35.869,51.464 C36.908,49.936 36.996,48.012 37.000,47.999 L37.000,46.000 L39.000,46.000 L39.000,47.999 C39.003,48.012 39.092,49.936 40.131,51.464 C40.728,52.343 41.714,53.168 42.552,53.681 C44.132,54.646 45.986,54.994 46.000,54.999 L48.000,54.999 L48.000,57.000 L46.000,57.000 C45.986,57.005 44.132,57.353 42.552,58.318 C41.714,58.830 40.728,59.656 40.131,60.535 C39.092,62.063 39.003,63.987 39.000,63.999 L39.000,66.000 L37.000,66.000 L37.000,63.999 C36.996,63.987 36.908,62.063 35.869,60.535 C35.271,59.656 34.286,58.830 33.448,58.318 C31.868,57.353 30.013,57.005 30.000,57.000 L28.000,57.000 L28.000,54.999 L30.000,54.999 C30.013,54.994 31.868,54.646 33.448,53.681 ZM36.400,57.956 C37.297,59.055 38.000,60.000 38.000,60.000 C38.000,60.000 38.703,59.055 39.600,57.956 C40.787,56.500 41.997,55.997 42.000,55.999 C41.997,56.002 40.787,55.499 39.600,54.043 C38.703,52.944 38.000,52.000 38.000,52.000 C38.000,52.000 37.297,52.944 36.400,54.043 C35.212,55.499 34.003,56.002 34.000,55.999 C34.003,55.997 35.212,56.500 36.400,57.956 ZM39.103,17.482 L43.318,13.267 L44.732,14.681 L40.518,18.896 L39.103,17.482 ZM91.000,73.000 L57.000,73.000 L57.000,5.000 L91.000,5.000 L91.000,73.000 ZM89.000,6.999 L59.000,6.999 L59.000,71.000 L89.000,71.000 L89.000,6.999 ZM69.448,19.681 C70.286,19.169 71.271,18.343 71.869,17.464 C72.908,15.936 72.996,14.012 73.000,13.999 L73.000,12.000 L75.000,12.000 L75.000,13.999 C75.003,14.012 75.092,15.936 76.131,17.464 C76.728,18.343 77.714,19.169 78.552,19.681 C80.132,20.646 81.986,20.994 82.000,20.999 L84.000,20.999 L84.000,23.000 L82.000,23.000 C81.986,23.005 80.132,23.353 78.552,24.318 C77.714,24.831 76.728,25.656 76.131,26.535 C75.092,28.063 75.003,29.987 75.000,30.000 L75.000,31.999 L73.000,31.999 L73.000,30.000 C72.996,29.987 72.908,28.063 71.869,26.535 C71.271,25.656 70.286,24.831 69.448,24.318 C67.868,23.353 66.014,23.005 66.000,23.000 L64.000,23.000 L64.000,20.999 L66.000,20.999 C66.014,20.994 67.868,20.646 69.448,19.681 ZM72.400,23.956 C73.297,25.055 74.000,26.000 74.000,26.000 C74.000,26.000 74.703,25.055 75.600,23.956 C76.787,22.499 77.997,21.997 78.000,21.999 C77.997,22.003 76.787,21.499 75.600,20.044 C74.703,18.944 74.000,18.000 74.000,18.000 C74.000,18.000 73.297,18.944 72.400,20.044 C71.212,21.499 70.003,22.003 70.000,21.999 C70.003,21.997 71.212,22.499 72.400,23.956 ZM9.000,4.414 L9.000,85.000 L91.313,85.000 L86.537,80.372 L87.947,79.006 L94.992,85.834 L94.822,85.999 L94.992,86.165 L87.947,92.992 L86.537,91.627 L91.313,87.000 L9.000,87.000 L9.000,87.000 L7.000,87.000 L7.000,4.414 L2.172,9.242 L0.757,7.828 L7.828,0.757 L8.000,0.929 L8.172,0.757 L15.243,7.828 L13.828,9.242 L9.000,4.414 Z" data-id="path-1758293612256-2"/>
</svg>