<svg xmlns="http://www.w3.org/2000/svg" xmlns:xlink="http://www.w3.org/1999/xlink" width="100%" height="100%" data-id="root">
<path fill-rule="evenodd" fill="rgb(200, 168, 123)" d="M2.000,89.000 L-0.000,89.000 L-0.000,87.000 L-0.000,-0.001 L23.000,-0.001 L23.000,65.999 L89.000,65.999 L89.000,89.000 L2.000,89.000 ZM21.000,65.999 L21.000,2.000 L2.000,2.000 L2.000,16.000 L9.000,16.000 L9.000,18.000 L2.000,18.000 L2.000,22.000 L12.000,22.000 L12.000,24.000 L2.000,24.000 L2.000,28.000 L9.000,28.000 L9.000,30.000 L2.000,30.000 L2.000,34.000 L12.000,34.000 L12.000,36.000 L2.000,36.000 L2.000,40.000 L9.000,40.000 L9.000,42.000 L2.000,42.000 L2.000,46.000 L12.000,46.000 L12.000,48.000 L2.000,48.000 L2.000,51.999 L9.000,51.999 L9.000,54.000 L2.000,54.000 L2.000,58.000 L12.000,58.000 L12.000,59.999 L2.000,59.999 L2.000,64.000 L9.000,64.000 L9.000,65.999 L2.000,65.999 L2.000,70.000 L12.000,70.000 L12.000,72.000 L2.000,72.000 L2.000,85.443 L21.000,66.443 L21.000,65.999 ZM87.000,68.000 L23.000,68.000 L22.272,68.000 L3.272,87.000 L17.000,87.000 L17.000,77.000 L19.000,77.000 L19.000,87.000 L23.000,87.000 L23.000,80.000 L25.000,80.000 L25.000,87.000 L29.000,87.000 L29.000,77.000 L31.000,77.000 L31.000,87.000 L35.000,87.000 L35.000,80.000 L37.000,80.000 L37.000,87.000 L41.000,87.000 L41.000,77.000 L43.000,77.000 L43.000,87.000 L47.000,87.000 L47.000,80.000 L49.000,80.000 L49.000,87.000 L53.000,87.000 L53.000,77.000 L55.000,77.000 L55.000,87.000 L59.000,87.000 L59.000,80.000 L61.000,80.000 L61.000,87.000 L65.000,87.000 L65.000,77.000 L67.000,77.000 L67.000,87.000 L71.000,87.000 L71.000,80.000 L73.000,80.000 L73.000,87.000 L87.000,87.000 L87.000,68.000 ZM79.500,72.999 C81.985,72.999 84.000,75.014 84.000,77.500 C84.000,79.985 81.985,81.999 79.500,81.999 C77.015,81.999 75.000,79.985 75.000,77.500 C75.000,75.014 77.015,72.999 79.500,72.999 ZM79.500,80.000 C80.881,80.000 82.000,78.880 82.000,77.500 C82.000,76.119 80.881,75.000 79.500,75.000 C78.119,75.000 77.000,76.119 77.000,77.500 C77.000,78.880 78.119,80.000 79.500,80.000 ZM7.000,9.500 C7.000,7.015 9.015,5.000 11.500,5.000 C13.985,5.000 16.000,7.015 16.000,9.500 C16.000,11.985 13.985,14.000 11.500,14.000 C9.015,14.000 7.000,11.985 7.000,9.500 ZM14.000,9.500 C14.000,8.119 12.881,6.999 11.500,6.999 C10.119,6.999 9.000,8.119 9.000,9.500 C9.000,10.880 10.119,11.999 11.500,11.999 C12.881,11.999 14.000,10.880 14.000,9.500 ZM76.094,63.094 L76.094,61.230 L76.094,57.093 L32.094,57.093 L32.094,57.000 L32.000,57.000 L32.000,13.000 L27.863,13.000 L26.000,13.000 L26.000,12.068 L37.000,0.191 L48.000,12.068 L48.000,13.000 L46.137,13.000 L42.000,13.000 L42.000,47.093 L76.094,47.093 L76.094,42.956 L76.094,41.094 L77.026,41.094 L88.902,52.093 L77.026,63.094 L76.094,63.094 ZM78.094,55.094 L78.094,59.378 L85.959,52.093 L78.094,44.809 L78.094,49.094 L76.094,49.094 L40.094,49.094 L40.094,49.000 L40.000,49.000 L40.000,13.000 L40.000,11.000 L40.000,11.000 L44.285,11.000 L37.000,3.134 L29.715,11.000 L34.000,11.000 L34.000,11.999 L34.000,13.000 L34.000,55.094 L76.094,55.094 L77.094,55.094 L78.094,55.094 Z" data-id="path-1758288712914-0"/>
</svg>