<svg xmlns="http://www.w3.org/2000/svg" xmlns:xlink="http://www.w3.org/1999/xlink" width="100%" height="100%" data-id="root">
<path fill-rule="evenodd" fill="rgb(200, 168, 123)" d="M-0.000,88.999 L-0.000,-0.001 L88.000,-0.001 L88.000,88.999 L-0.000,88.999 ZM86.000,2.000 L2.000,2.000 L2.000,87.000 L86.000,87.000 L86.000,2.000 ZM84.000,85.000 L4.000,85.000 L4.000,3.999 L84.000,3.999 L84.000,85.000 ZM82.000,5.999 L6.000,5.999 L6.000,82.999 L82.000,82.999 L82.000,5.999 ZM17.000,8.929 L17.171,8.757 L24.242,15.828 L22.828,17.242 L18.000,12.414 L18.000,71.000 L75.313,71.000 L70.537,66.372 L71.947,65.007 L78.992,71.834 L78.822,71.999 L78.992,72.165 L71.947,78.993 L70.537,77.627 L75.313,73.000 L18.000,73.000 L16.000,73.000 L16.000,12.414 L11.171,17.242 L9.757,15.828 L16.828,8.757 L17.000,8.929 ZM58.603,23.017 L60.018,21.603 L72.732,34.317 L71.318,35.732 L58.603,23.017 ZM52.268,16.681 L53.682,15.267 L57.896,19.482 L56.482,20.896 L52.268,16.681 ZM64.318,42.732 L51.603,30.017 L53.018,28.603 L65.732,41.318 L64.318,42.732 ZM50.896,26.482 L49.482,27.896 L45.268,23.682 L46.682,22.267 L50.896,26.482 ZM70.818,42.232 L45.768,17.182 L47.182,15.768 L72.232,40.818 L70.818,42.232 Z" data-id="path-1758293505666-1"/>
</svg>