<svg xmlns="http://www.w3.org/2000/svg" xmlns:xlink="http://www.w3.org/1999/xlink" width="100%" height="100%" data-id="root">
<path fill-rule="evenodd" fill="rgb(255, 255, 255)" d="M28.000,15.000 L28.000,16.000 L21.000,16.000 L18.000,13.000 L16.000,13.000 L16.000,16.000 L11.000,16.000 C11.009,16.020 6.759,13.993 3.403,8.844 C0.681,4.667 -0.000,1.000 -0.000,1.000 L6.000,1.000 C6.000,1.000 6.629,3.688 7.487,4.979 C8.853,7.035 10.988,8.999 11.000,9.000 L11.000,2.000 C11.000,1.996 10.402,1.490 10.088,0.914 C9.830,0.441 10.071,0.448 11.388,0.390 C13.148,0.312 14.647,0.384 15.590,0.444 C16.171,0.481 16.000,2.000 16.000,2.000 L16.000,8.000 L17.000,8.000 C17.000,8.000 18.597,7.131 19.752,5.238 C21.122,2.992 21.012,0.988 21.000,1.000 L28.000,1.000 L28.000,2.000 L23.000,9.000 L23.000,10.000 L28.000,15.000 Z" data-id="path-1758367076747-2"/>
</svg>