<svg xmlns="http://www.w3.org/2000/svg" xmlns:xlink="http://www.w3.org/1999/xlink" width="100%" height="100%" data-id="root">
<path fill-rule="evenodd" fill="rgb(255, 255, 255)" d="M11.499,22.975 C9.728,22.975 8.059,22.559 6.564,21.839 L6.855,22.131 L0.101,23.819 L1.708,17.391 C0.694,15.687 0.101,13.704 0.101,11.577 C0.101,5.283 5.204,0.180 11.499,0.180 C17.794,0.180 22.897,5.283 22.897,11.577 C22.897,17.872 17.794,22.975 11.499,22.975 ZM18.403,13.742 C18.151,13.502 17.858,13.299 17.567,13.105 C17.145,12.823 16.721,12.540 16.233,12.376 C15.598,12.164 15.089,12.303 14.663,12.816 C14.468,13.053 14.276,13.294 14.090,13.537 C13.810,13.905 13.444,14.059 12.997,13.943 C12.715,13.869 12.435,13.765 12.178,13.629 C11.484,13.261 10.890,12.753 10.318,12.223 C9.882,11.820 9.469,11.395 9.186,10.868 C8.861,10.263 8.897,9.797 9.429,9.317 C9.676,9.095 9.882,8.826 10.093,8.568 C10.233,8.396 10.305,8.190 10.323,7.967 C10.352,7.619 10.234,7.312 10.063,7.020 C9.782,6.541 9.401,6.140 9.026,5.738 C8.819,5.516 8.582,5.310 8.328,5.144 C7.922,4.880 7.525,4.941 7.189,5.291 C6.925,5.568 6.664,5.850 6.428,6.152 C5.700,7.083 5.465,8.143 5.626,9.300 C5.755,10.212 6.119,11.033 6.636,11.782 C7.923,13.649 9.600,15.099 11.568,16.215 C12.580,16.789 13.663,17.155 14.850,17.133 C15.842,17.114 16.736,16.816 17.479,16.160 C17.840,15.840 18.145,15.455 18.460,15.087 C18.860,14.620 18.848,14.168 18.403,13.742 Z" data-id="path-1758366818384-1"/>
</svg>